HIERARCHY
ROOT Hips
{
  OFFSET 37.2432 22.0034 -144.562
  CHANNELS 6 Xposition Yposition Zposition Zrotation Xrotation Yrotation
  JOINT RightUpLeg
  {
    OFFSET -8.9458 -8.66707 0.101652
    CHANNELS 3 Zrotation Xrotation Yrotation
    JOINT RightLeg
    {
      OFFSET 0 -44.4227 1.3727
      CHANNELS 3 Zrotation Xrotation Yrotation
      JOINT RightFoot
      {
        OFFSET 0.253549 -42.0924 -1.46059
        CHANNELS 3 Zrotation Xrotation Yrotation
        JOINT RightToes
        {
          OFFSET 0.04 -4.41509 8.4991
          CHANNELS 3 Zrotation Xrotation Yrotation
          End Site
          {
            OFFSET -0.08 -0.137448 9.77979
          }
        }
      }
    }
  }
  JOINT Spine
  {
    OFFSET 0 11.8905 0
    CHANNELS 3 Zrotation Xrotation Yrotation
    JOINT Spine1
    {
      OFFSET 0 25.6574 0.127663
      CHANNELS 3 Zrotation Xrotation Yrotation
      JOINT HEad
      {
        OFFSET 0 8.73416 0.011341
        CHANNELS 3 Zrotation Xrotation Yrotation
        End Site
        {
          OFFSET -0.29 12.7742 2.51395
        }
      }
      JOINT LeftShoulder1
      {
        OFFSET 8.99 -0.362252 -0.22
        CHANNELS 3 Zrotation Xrotation Yrotation
        JOINT LeftArm
        {
          OFFSET 10.2827 -0.00338 0.322123
          CHANNELS 3 Zrotation Xrotation Yrotation
          JOINT LeftForeArm
          {
            OFFSET 32.7669 0.099144 -1.42434
            CHANNELS 3 Zrotation Xrotation Yrotation
            JOINT LeftHand
            {
              OFFSET 27.5643 0.085362 1.02216
              CHANNELS 3 Zrotation Xrotation Yrotation
              End Site
              {
                OFFSET 16.7443 -0.6 1.50291
              }
            }
          }
        }
      }
      JOINT RightShoulder
      {
        OFFSET -8.99 -0.362252 -0.22
        CHANNELS 3 Zrotation Xrotation Yrotation
        JOINT RightArm
        {
          OFFSET -10.2827 -0.00338 0.322123
          CHANNELS 3 Zrotation Xrotation Yrotation
          JOINT RightForeArm
          {
            OFFSET -32.8971 0.099144 -1.42434
            CHANNELS 3 Zrotation Xrotation Yrotation
            JOINT RightHand
            {
              OFFSET -27.4921 0.085362 1.02216
              CHANNELS 3 Zrotation Xrotation Yrotation
              End Site
              {
                OFFSET -16.6312 -0.6 1.50291
              }
            }
          }
        }
      }
    }
  }
  JOINT LeftUpLeg
  {
    OFFSET 8.9458 -8.66707 0.101652
    CHANNELS 3 Zrotation Xrotation Yrotation
    JOINT LeftLeg
    {
      OFFSET 0 -44.4227 1.3727
      CHANNELS 3 Zrotation Xrotation Yrotation
      JOINT LeftFoot
      {
        OFFSET -0.253549 -42.0924 -1.46059
        CHANNELS 3 Zrotation Xrotation Yrotation
        JOINT LeftToes
        {
          OFFSET -0.04 -4.41509 8.4991
          CHANNELS 3 Zrotation Xrotation Yrotation
          End Site
          {
            OFFSET 0.08 -0.047448 9.77979
          }
        }
      }
    }
  }
}
MOTION
Frames:	12
Frame Time:	0.0166667
44.1257 96.5942 -120.733 3.20103 5.44465 -16.7667 -16.1226 -7.38322 6.04143 18.4332 26.2097 -72.4191 6.5219 -1.88772 0.241506 0.0462048 0.000533403 0.662642 -6.21193 2.71515 7.18204 0.00798548 -2.25512e-008 0.01051 -6.74387 2.71964 15.0865 -7.95139e-016 -1.59028e-015 3.18055e-015 -114.022 -19.5629 -96.8789 -42.6707 49.2291 -60.2121 34.805 2.32942 -43.0584 15.6729 6.52673 12.4696 80.0028 -1.06269 88.5298 42.8174 36.7072 64.2231 -32.9552 11.3935 23.0563 12.2856 -32.5679 13.3958 -4.00429 29.946 3.13853 2.15167 -2.93927 0.176878 -1.33827e-009 1.56028e-007 -4.86465e-009 
43.4997 94.9261 -121.697 3.34338 4.73915 -16.8402 -18.3563 -10.3554 2.99291 21.7876 32.3212 -73.6207 5.48517 -2.90993 0.534127 0.0462048 0.000533403 0.662642 -6.02786 3.26692 7.55334 0.00798548 -2.25512e-008 0.01051 -7.20067 2.93184 14.8028 -3.97569e-016 0 1.59028e-015 -115.105 -19.3741 -95.5489 -50.8978 47.4683 -56.0258 34.993 6.90341 -45.8982 15.9124 6.36215 11.867 79.445 0.0927559 87.7632 44.4479 35.9545 63.2157 -30.8126 4.66009 27.4344 13.5033 -34.2087 14.0924 -4.15686 33.4622 3.29332 0.918253 -4.40709 0.0792122 -1.33826e-009 1.56028e-007 -4.86465e-009 
42.3709 91.8081 -122.82 3.54877 3.82027 -16.9986 -21.8056 -14.4691 -0.863227 27.8605 42.0595 -75.1924 6.72254 -5.65516 1.37132 0.0462048 0.000533403 0.662642 -5.77127 3.94359 7.91999 0.00798548 -2.25512e-008 0.01051 -7.85396 3.36625 14.7141 1.98785e-016 -1.59028e-015 1.59028e-015 -116.443 -18.9463 -94.3255 -56.329 47.4034 -53.7065 30.1277 -9.11873 -53.3358 15.9708 6.32921 11.4627 78.9814 1.2892 87.0322 45.6781 35.3572 62.3273 -31.9449 10.9702 26.6294 15.9911 -37.6929 15.173 -4.88792 40.9051 4.1534 -0.795786 -7.43272 -0.18618 -1.33827e-009 1.56028e-007 -4.86465e-009 
40.8431 87.5363 -124.111 3.80244 2.71574 -17.2118 -26.0005 -18.5912 -5.46107 39.5279 53.1098 -81.1528 8.16858 -8.44593 2.26565 0.0462048 0.000533403 0.662642 -5.4426 4.74376 8.25571 0.00798511 0.00202998 0.01051 -8.68865 3.99537 14.8101 -4.41391e-032 1.59028e-015 1.59028e-015 -117.986 -18.3997 -92.9283 -60.7089 49.1468 -51.6732 34.5579 4.63931 -49.5394 15.8942 6.42881 11.2118 78.6212 2.63009 86.2804 51.0437 31.9054 60.2145 -22.7558 -5.10532 36.7007 20.1495 -42.4518 16.6614 -7.14675 50.298 6.49068 -3.01676 -10.3526 -0.77103 -1.33827e-009 1.56028e-007 -4.86465e-009 
39.0852 82.4969 -125.508 4.07007 1.45924 -17.4473 -29.9029 -21.9188 -9.67965 58.8047 62.6671 -95.0149 9.75291 -11.1677 3.03294 0.0462048 0.000533403 0.662642 -4.77115 5.44217 8.22323 0.00798376 0.00936998 0.01051 -9.93208 4.99502 15.4001 -5.96354e-016 -1.59028e-015 3.18055e-015 -119.881 -18.6939 -91.5529 -63.993 50.1168 -50.0192 33.7091 -3.18394 -53.2473 15.4125 6.96443 11.257 78.4365 4.14827 85.545 53.9616 29.8416 58.8033 -22.2512 6.87894 31.6279 25.8238 -47.4139 18.8017 -11.9059 59.7263 11.0814 -5.58942 -12.218 -1.68431 -1.33827e-009 1.56028e-007 -4.86465e-009 
37.267 77.0709 -126.934 4.3388 0.0768356 -17.7083 -33.2517 -24.5649 -13.5394 88.744 68.2377 -119.73 11.3361 -13.6097 3.4772 0.0462048 0.000533403 0.662642 -3.84379 6.08813 7.8432 0.00471945 0.01472 0.01051 -11.5292 6.26159 16.4595 -1.98785e-016 7.95139e-016 -1.59028e-015 -122.04 -19.7107 -90.4033 -66.7633 50.4839 -48.6564 35.0413 4.27579 -51.669 14.5596 7.85878 11.5636 78.4483 5.71602 84.8695 55.646 28.5977 57.864 -22.0273 3.46128 37.8006 32.2282 -51.407 21.8215 -19.3593 67.812 18.0148 -8.27165 -13.0341 -2.78897 -1.33827e-009 1.56028e-007 -4.86465e-009 
35.6035 71.7082 -128.331 4.62589 -1.40504 -18.0236 -36.1915 -26.8015 -17.1776 119.526 68.2642 -146.704 12.3119 -15.8341 3.71266 0.0462048 0.000533403 0.662642 -2.76457 6.71337 7.15833 0.00109297 0.01929 0.01051 -13.442 7.6849 17.9654 7.95139e-016 1.59028e-015 -1.59028e-015 -124.424 -20.8788 -89.7949 -68.7282 49.999 -47.285 32.8553 -0.328519 -53.431 13.4827 9.05461 12.1971 78.5769 7.42632 84.1807 60.6215 24.8204 57.0879 -21.093 14.6847 35.0255 39.0694 -54.3651 25.5454 -31.1956 74.1105 29.0237 -10.8329 -12.6867 -3.86535 -1.33827e-009 1.56028e-007 -4.86465e-009 
34.2883 66.8428 -129.673 5.21744 -4.65089 -19.5563 -38.5917 -28.1359 -18.5196 141.448 65.1173 -165.873 12.6639 -17.4447 3.75764 0.0462048 0.000533403 0.662642 -2.6236 8.81998 7.43917 -0.00176996 0.02278 0.01051 -16.0051 10.4226 20.7899 -3.97569e-016 -7.95139e-016 -1.59028e-015 -126.963 -22.4477 -89.7972 -70.2211 48.6648 -46.5016 32.8126 3.09522 -52.5412 12.1701 10.4315 13.1647 78.8837 9.22508 83.5121 63.0386 22.7564 56.3175 -14.9059 -1.43395 48.6245 44.438 -54.42 28.9476 -49.0363 78.1981 45.8924 -13.0453 -11.3406 -4.68788 -1.33827e-009 1.56028e-007 -4.86465e-009 
33.5268 62.9258 -130.934 5.71677 -7.58813 -20.9711 -40.6877 -29.3439 -19.9694 154.978 61.6436 -177.365 12.2069 -17.8842 3.49264 0.0462048 0.000533403 0.662642 -2.56146 10.9034 7.63565 -0.00197996 0.02348 0.01035 -18.5848 12.7572 23.5098 -4.96962e-016 0 -0 -129.435 -23.5757 -90.5099 -70.9797 46.4835 -45.8176 29.4944 0.65872 -52.5312 10.9271 11.5864 14.1283 79.3332 11.1056 82.8934 63.9689 21.6643 55.3559 -17.6249 13.8164 39.7915 48.3222 -54.0575 31.2737 -70.1287 79.9725 66.1335 -14.7682 -9.27946 -5.06248 -1.33827e-009 1.56028e-007 -4.86465e-009 
33.2238 59.6193 -132.125 6.13951 -10.2434 -22.3232 -42.6835 -30.5735 -21.4467 164.149 58.4403 175.1 11.2617 -17.4884 3.05968 0.0462048 0.000533403 0.662642 -1.86335 14.0645 7.32343 0.0654104 0.10247 -0.0143916 -22.0437 13.5706 26.0284 -5.96354e-016 -1.19271e-015 -0 -133.157 -24.0109 -92.6161 -71.4503 44.095 -45.0831 28.5336 1.65272 -52.0985 8.67094 11.4852 15.5078 79.9412 12.9109 82.4055 64.2399 21.0308 54.55 -14.8866 6.36433 47.1801 51.3977 -53.7536 33.066 -91.7226 80.1943 87.0322 -16.2213 -6.93956 -5.12256 -1.33827e-009 1.56028e-007 -4.86465e-009 
33.1579 56.3049 -133.268 6.47017 -12.6597 -23.6549 -44.5708 -31.9272 -22.9136 171.139 54.9821 169.464 10.3116 -16.9917 2.67163 0.0462048 0.000533403 0.662642 -0.710025 18.1577 6.49021 0.0557604 0.0998699 -0.0141614 -25.9212 13.1843 28.2115 5.96354e-016 -3.18055e-015 -0 -137.564 -23.8411 -96.0092 -71.3175 40.8145 -44.7087 25.1177 -1.22315 -51.1007 5.92685 10.3932 17.0806 80.6148 14.75 82.0747 64.1193 20.6475 53.6261 -16.1499 14.9054 42.2729 54.9281 -53.8208 35.1708 -112.827 79.095 107.455 -17.6783 -4.54555 -5.10585 -1.33827e-009 1.56028e-007 -4.86465e-009 
33.3094 52.9933 -134.363 6.69376 -14.8666 -24.9897 -46.3625 -33.4445 -24.3542 176.485 51.3671 165.242 9.34505 -16.3496 2.30976 0.0462048 0.000533403 0.662642 0.269325 21.5572 5.2999 -0.01258 0.00804002 0.0159603 -29.4972 13.0293 30.6595 -3.37934e-015 0 6.36111e-015 -141.314 -24.0335 -99.0216 -71.0864 37.632 -43.9467 22.8614 -1.31955 -51.2401 3.58339 9.84573 18.6797 81.2762 16.3989 81.884 63.9224 20.3277 52.8279 -14.1273 10.3244 46.6332 58.9109 -54.1853 37.5902 -128.976 76.8838 122.995 -19.1589 -2.14075 -5.01705 -1.33827e-009 1.56028e-007 -4.86465e-009 
